Coordinates
version=1
nRows=32
nColumns=12
inDegrees=yes

Units are S.I. units (second, meters, Newtons, ...)
Angles are in degrees

endheader
time	SC_y	SC_z	SC_x	AC_y	AC_z	AC_x	GH_y	GH_z	GH_yy	EL_x	PS_y
       0.0              -14.06          8.115          52.75          31.74         -6.491          6.778          102.8          18.41         -30.06          64.37          150.3
   0.02313              -14.06          8.115          52.74          31.74          -6.49          6.775          102.8          18.42         -30.05          64.38          150.3
   0.04625              -14.06          8.115          52.74          31.75         -6.489          6.771          102.8          18.43         -30.04          64.39          150.3
   0.06938              -14.06          8.114          52.73          31.75         -6.488          6.768          102.8          18.43         -30.03          64.39          150.3
    0.0925              -14.07          8.114          52.72          31.75         -6.487          6.764          102.7          18.44         -30.01           64.4          150.3
    0.1156              -14.07          8.114          52.71          31.75         -6.486          6.759          102.7          18.45          -30.0           64.4          150.3
    0.1388              -14.07          8.113           52.7          31.75         -6.484          6.755          102.7          18.46         -29.98          64.41          150.3
    0.1619              -14.08          8.113          52.69          31.76         -6.483           6.75          102.7          18.47         -29.96          64.42          150.3
     0.185              -14.08          8.113          52.68          31.76         -6.481          6.745          102.6          18.48         -29.94          64.43          150.3
    0.2081              -14.08          8.112          52.66          31.76          -6.48          6.739          102.6          18.49         -29.92          64.43          150.3
    0.2313              -14.09          8.112          52.65          31.76         -6.478          6.733          102.6           18.5          -29.9          64.44          150.3
    0.2544              -14.09          8.111          52.64          31.76         -6.476          6.726          102.5          18.52         -29.88          64.45          150.3
    0.2775               -14.1          8.111          52.62          31.77         -6.474          6.719          102.5          18.53         -29.86          64.46          150.3
    0.3006               -14.1           8.11           52.6          31.77         -6.472          6.712          102.4          18.55         -29.83          64.47          150.3
    0.3238              -14.11           8.11          52.59          31.77          -6.47          6.704          102.4          18.56          -29.8          64.49          150.2
    0.3469              -14.11          8.109          52.57          31.78         -6.467          6.695          102.4          18.58         -29.77           64.5          150.2
      0.37              -14.12          8.108          52.55          31.78         -6.465          6.685          102.3           18.6         -29.74          64.51          150.2
    0.3931              -14.13          8.107          52.52          31.79         -6.462          6.674          102.2          18.62          -29.7          64.53          150.2
    0.4163              -14.14          8.106           52.5          31.79         -6.459          6.663          102.2          18.65         -29.66          64.55          150.2
    0.4394              -14.15          8.105          52.47           31.8         -6.455           6.65          102.1          18.67         -29.61          64.57          150.2
    0.4625              -14.16          8.104          52.44           31.8         -6.451          6.637          102.0           18.7         -29.57          64.59          150.2
    0.4856              -14.17          8.103           52.4          31.81         -6.447          6.621          101.9          18.73         -29.51          64.61          150.2
    0.5088              -14.18          8.102          52.37          31.82         -6.442          6.604          101.8          18.77         -29.45          64.63          150.2
    0.5319              -14.19          8.101          52.33          31.82         -6.437          6.586          101.7           18.8         -29.39          64.66          150.1
     0.555              -14.21          8.099          52.28          31.83         -6.431          6.565          101.6          18.85         -29.31          64.69          150.1
    0.5781              -14.22          8.097          52.23          31.84         -6.425          6.542          101.5          18.89         -29.23          64.73          150.1
    0.6013              -14.24          8.095          52.17          31.85         -6.417          6.516          101.4          18.95         -29.14          64.77          150.1
    0.6244              -14.26          8.093          52.11          31.87         -6.409          6.487          101.2          19.01         -29.04          64.81          150.1
    0.6475              -14.28          8.091          52.04          31.88           -6.4          6.454          101.0          19.07         -28.92          64.86          150.0
    0.6706              -14.31          8.088          51.95          31.89          -6.39          6.417          100.8          19.15         -28.79          64.91          150.0
    0.6938              -14.34          8.085          51.86          31.91         -6.378          6.374          100.6          19.24         -28.64          64.98          150.0
    0.7169              -14.37          8.081          51.75          31.93         -6.364          6.325          100.3          19.34         -28.47          65.05          149.9
